<svg width="91" height="91" viewBox="0 0 91 91" fill="none" xmlns="http://www.w3.org/2000/svg">
<g clip-path="url(#clip0)">
<path d="M61.1788 49.189L53.4328 45.7462C52.8855 45.5031 52.5322 44.959 52.5322 44.3604V42.2333C55.1343 40.16 56.8067 36.9674 56.8067 33.3896V30.3953C57.6639 29.9216 58.2315 29.0063 58.2315 27.9811V27.6905C58.2315 21.4563 53.1594 16.3843 46.9252 16.3843H44.0758C37.8416 16.3843 32.7695 21.4563 32.7695 27.6905V30.3272C32.7695 31.2283 33.1574 32.0447 33.8333 32.567C33.9479 32.6555 34.0686 32.7334 34.1943 32.8007V33.3894C34.1943 36.9672 35.8666 40.1598 38.4684 42.2329V44.3603C38.4684 44.9589 38.1149 45.5029 37.5678 45.7461L29.8218 49.1888C27.285 50.3161 25.6458 52.8386 25.6458 55.6146V73.2821C25.6458 74.0183 26.2426 74.6152 26.9788 74.6152C27.7149 74.6152 28.3118 74.0183 28.3118 73.2821V55.6148C28.3118 55.4603 28.3228 55.3077 28.3388 55.1562L31.9081 58.7255C32.4635 59.2811 32.7695 60.0196 32.7695 60.8053V73.2823C32.7695 74.0185 33.3664 74.6153 34.1025 74.6153C34.8387 74.6153 35.4356 74.0185 35.4356 73.2823V60.8053C35.4356 59.3076 34.8524 57.8996 33.7933 56.8404L29.5381 52.5851C29.9215 52.1873 30.3815 51.8576 30.9047 51.625L38.5201 48.2404L44.1677 53.8879V73.2821C44.1677 74.0183 44.7645 74.6152 45.5007 74.6152C46.2368 74.6152 46.8337 74.0183 46.8337 73.2821V53.8881L52.4812 48.2406L60.0964 51.625C60.6197 51.8576 61.0797 52.1873 61.463 52.5853L57.2079 56.8404C56.1488 57.8996 55.5656 59.3076 55.5656 60.8053V73.2823C55.5656 74.0185 56.1624 74.6153 56.8986 74.6153C57.6348 74.6153 58.2316 74.0185 58.2316 73.2823V60.8053C58.2316 60.0198 58.5375 59.2811 59.0931 58.7255L62.6622 55.1564C62.6782 55.3078 62.6892 55.4601 62.6892 55.6146V73.2821C62.6892 74.0183 63.2861 74.6152 64.0222 74.6152C64.7584 74.6152 65.3552 74.0183 65.3552 73.2821V55.6148C65.3547 52.8387 63.7156 50.3163 61.1788 49.189ZM45.5001 51.4508L40.5447 46.4952C40.9215 45.8612 41.1343 45.1277 41.1343 44.3604V43.818C42.4785 44.3828 43.9535 44.6958 45.5003 44.6958C47.0471 44.6958 48.522 44.383 49.866 43.8182V44.3604C49.866 45.1279 50.0788 45.8612 50.4557 46.4954L45.5001 51.4508ZM45.5003 42.0296C40.7361 42.0298 36.8601 38.1538 36.8601 33.3896V32.7901C37.6919 32.4604 38.5038 31.9357 39.281 31.2186C39.8219 30.7193 39.8558 29.8759 39.3564 29.3349C38.8571 28.7941 38.014 28.7601 37.4728 29.2594C36.8061 29.8749 36.1399 30.2725 35.4933 30.4413C35.4777 30.4454 35.4661 30.4472 35.4579 30.4479C35.4484 30.4292 35.4354 30.3901 35.4354 30.3274V27.6907C35.4354 22.9265 39.3114 19.0505 44.0756 19.0505H46.925C51.6894 19.0505 55.5653 22.9265 55.5653 27.6907V27.9813C55.5653 28.0245 55.5393 28.062 55.5052 28.0687C47.5229 29.6452 43.5193 26.6741 42.1685 25.3233C41.6479 24.8027 40.8039 24.8027 40.2834 25.3233C39.7629 25.8439 39.7629 26.6879 40.2834 27.2083C44.4229 31.3478 50.4632 31.4224 54.1405 30.9806V33.3894C54.1405 38.1536 50.2645 42.0296 45.5003 42.0296Z" fill="#6F22EE"/>
<path d="M24.0372 41.9384V39.0885C24.0372 35.6109 22.23 32.5496 19.5069 30.7879C19.6751 30.2485 19.7629 29.6834 19.7629 29.1152C19.7629 26.0234 17.2476 23.5081 14.1557 23.5081C11.0638 23.5081 8.54851 26.0235 8.54851 29.1152C8.54851 29.6906 8.6356 30.2501 8.80409 30.7882C6.08119 32.5498 4.27416 35.6111 4.27416 39.0885V41.9379C4.27416 45.3054 5.96851 48.2832 8.54833 50.068V52.9994C8.54833 53.5776 8.22716 54.0973 7.71013 54.3559L3.09952 56.6611C1.18762 57.6173 0 59.539 0 61.6766V73.2825C0 74.0187 0.596833 74.6155 1.33301 74.6155C2.06919 74.6155 2.66602 74.0187 2.66602 73.2825V62.2532L4.83758 64.4247C5.393 64.9803 5.69906 65.7188 5.69906 66.5046V73.2825C5.69906 74.0187 6.2959 74.6155 7.03207 74.6155C7.76825 74.6155 8.36508 74.0187 8.36508 73.2825V66.5046C8.36508 65.0068 7.78176 63.5988 6.72282 62.5397L3.70044 59.5173C3.68586 59.5027 3.67022 59.4901 3.65529 59.4764C3.84494 59.309 4.05768 59.1632 4.29194 59.0459L8.90255 56.7407C9.13876 56.6225 9.35862 56.483 9.56355 56.328L12.8227 59.5873V73.2827C12.8227 74.0188 13.4195 74.6157 14.1557 74.6157C14.8919 74.6157 15.4887 74.0188 15.4887 73.2827V59.5871L18.748 56.3278C18.9531 56.483 19.1728 56.6225 19.409 56.7405L20.6803 57.3763C20.8717 57.4721 21.0751 57.5174 21.2756 57.5174C21.7645 57.5174 22.2353 57.2473 22.4689 56.7803C22.7982 56.1218 22.5313 55.3211 21.8727 54.992L20.6014 54.3562C20.0842 54.0976 19.763 53.5779 19.763 52.9999V50.0686C22.3429 48.2837 24.0372 45.3058 24.0372 41.9384ZM14.1557 26.1741C15.7775 26.1741 17.0968 27.4936 17.0968 29.1152C17.0968 29.2939 17.0808 29.4689 17.0503 29.6404C16.1342 29.3593 15.1625 29.2069 14.1557 29.2069C13.1502 29.2069 12.1798 29.3587 11.2652 29.6392C11.2344 29.4677 11.2145 29.2935 11.2145 29.1152C11.2145 27.4934 12.5339 26.1741 14.1557 26.1741ZM14.1557 31.8731C18.1343 31.8731 21.3712 35.11 21.3712 39.0886V39.5717C15.8214 41.2709 12.5139 37.0491 12.3726 36.8641C12.1407 36.555 11.7861 36.3617 11.4008 36.3343C11.0155 36.3073 10.6369 36.4482 10.3637 36.7214C9.09131 37.9938 7.84503 38.6075 6.94498 38.9038C7.04363 35.0103 10.2391 31.8731 14.1557 31.8731ZM14.1557 57.1497L11.0754 54.0694C11.1653 53.7256 11.2145 53.3673 11.2145 52.9996V51.3724C12.1439 51.6628 13.1319 51.8194 14.1557 51.8194C15.1794 51.8194 16.1675 51.6628 17.0968 51.3724V52.9996C17.0968 53.3673 17.1461 53.7258 17.236 54.0694L14.1557 57.1497ZM14.1557 49.1534C10.1771 49.1534 6.94019 45.9165 6.94019 41.9379V41.6617C8.00322 41.4175 9.57937 40.85 11.2236 39.5276C11.8053 40.0765 12.6368 40.7497 13.6955 41.3272C14.9478 42.0102 16.6774 42.6421 18.7899 42.6421C19.5928 42.6421 20.4518 42.5488 21.3598 42.3344C21.1531 46.1294 18.0011 49.1534 14.1557 49.1534Z" fill="#6F22EE"/>
<path d="M87.9007 53.8119L80.4406 50.0818C79.9236 49.8232 79.6024 49.3035 79.6024 48.7255V46.8364C81.3486 45.286 82.4518 43.0266 82.4518 40.5135V38.9961C82.4826 38.9961 82.5128 38.997 82.5436 38.997C83.2797 38.997 83.8766 38.4002 83.8766 37.664V34.8146C83.8766 30.1515 80.0828 26.3578 75.4198 26.3578H72.5703C67.9073 26.3578 64.1135 30.1515 64.1135 34.8146V37.664C64.1135 38.4002 64.7104 38.997 65.4465 38.997C65.4576 38.997 65.4895 38.9967 65.5382 38.9947V40.5135C65.5382 43.0268 66.6416 45.2862 68.3879 46.8366V48.7257C68.3879 49.3039 68.0667 49.8236 67.5495 50.082C66.891 50.4112 66.624 51.2118 66.9534 51.8704C67.1869 52.3374 67.6577 52.6076 68.1467 52.6076C68.347 52.6076 68.5503 52.5623 68.7417 52.4667C68.9779 52.3485 69.1978 52.2089 69.4027 52.054L72.662 55.3133V73.2828C72.662 74.0189 73.2589 74.6158 73.995 74.6158C74.7312 74.6158 75.3281 74.0189 75.3281 73.2828V55.3129L78.5872 52.0536C78.7923 52.2088 79.012 52.3483 79.2482 52.4663L86.4669 56.0757L84.2774 58.2653C83.2184 59.3244 82.6351 60.7324 82.6351 62.2302V73.2824C82.6351 74.0186 83.2319 74.6154 83.9681 74.6154C84.7043 74.6154 85.3011 74.0186 85.3011 73.2824V62.2302C85.3011 61.4446 85.607 60.7059 86.1626 60.1503L88.2366 58.0763C88.2995 58.3175 88.334 58.569 88.334 58.8271V73.2824C88.334 74.0186 88.9308 74.6154 89.667 74.6154C90.4032 74.6154 91 74.0186 91 73.2824V58.8271C91.0002 56.6896 89.8126 54.768 87.9007 53.8119ZM66.7794 36.0568V34.8144H66.7795C66.7795 31.6214 69.3773 29.0236 72.5703 29.0236H75.4198C78.6128 29.0236 81.2105 31.6214 81.2105 34.8144V36.2951C75.4159 35.9825 71.9189 33.7276 71.885 33.7053C71.6594 33.555 71.4021 33.4814 71.146 33.4814C70.8019 33.4814 70.4606 33.6143 70.2029 33.8719C68.9275 35.1473 67.6778 35.7612 66.7794 36.0568ZM73.995 52.8756L70.9147 49.7953C71.0047 49.4516 71.0539 49.0933 71.0539 48.7255V48.4417C71.9703 48.7827 72.9612 48.9701 73.995 48.9701C75.0289 48.9701 76.0198 48.7827 76.9362 48.4417V48.7255C76.9362 49.0933 76.9853 49.4516 77.0754 49.7953L73.995 52.8756ZM73.995 46.3042C70.802 46.3042 68.2043 43.7066 68.2043 40.5135V38.3645C69.1379 37.9914 70.2256 37.3983 71.3326 36.4552C72.7324 37.1836 75.6611 38.4425 79.7858 38.8584V40.5135C79.7858 43.7065 77.1881 46.3042 73.995 46.3042Z" fill="#6F22EE"/>
</g>
<defs>
<clipPath id="clip0">
<rect width="91" height="91" fill="white"/>
</clipPath>
</defs>
</svg>
