<svg width="91" height="91" viewBox="0 0 91 91" fill="none" xmlns="http://www.w3.org/2000/svg">
<g clip-path="url(#clip0)">
<path d="M51.142 65.5814H30.7225C29.7341 65.5814 28.9329 66.3828 28.9329 67.3714C28.9329 68.3599 29.7341 69.1613 30.7225 69.1613H51.142C52.1304 69.1613 52.9316 68.3599 52.9316 67.3714C52.9318 66.3828 52.1304 65.5814 51.142 65.5814Z" fill="white"/>
<path d="M21.1729 76.548C21.1729 77.5366 21.9741 78.338 22.9625 78.338H32.9533C33.9416 78.338 34.7429 77.5366 34.7429 76.548C34.7429 75.5595 33.9416 74.7581 32.9533 74.7581H22.9625C21.9741 74.7581 21.1729 75.5595 21.1729 76.548V76.548Z" fill="white"/>
<path d="M47.1216 76.548C47.1216 77.5366 47.923 78.338 48.9112 78.338H58.902C59.8904 78.338 60.6916 77.5366 60.6916 76.548C60.6916 75.5595 59.8902 74.7581 58.902 74.7581H48.9112C47.923 74.7581 47.1216 75.5595 47.1216 76.548Z" fill="white"/>
<path d="M40.9146 74.7581C39.9262 74.7581 39.125 75.5595 39.125 76.548C39.125 77.5366 39.9262 78.338 40.9146 78.338H40.9498C41.9382 78.338 42.7394 77.5366 42.7394 76.548C42.7394 75.5595 41.9382 74.7581 40.9498 74.7581H40.9146Z" fill="white"/>
<path d="M4.58746 29.5989C5.57584 29.5989 6.37707 28.7975 6.37707 27.809V27.7736C6.37707 26.785 5.57584 25.9836 4.58746 25.9836C3.59908 25.9836 2.79785 26.785 2.79785 27.7736V27.809C2.79785 28.7975 3.59908 29.5989 4.58746 29.5989Z" fill="white"/>
<path d="M86.0961 70.6133L78.0547 62.5721V17.2472C78.0547 17.1899 78.0515 17.1331 78.046 17.0764C78.0437 17.0525 78.0396 17.0293 78.0365 17.0058C78.0323 16.974 78.028 16.9424 78.0221 16.9109C78.0166 16.8825 78.0097 16.8546 78.003 16.8266C77.9967 16.8011 77.9905 16.7755 77.9832 16.7502C77.9747 16.7207 77.9651 16.6917 77.955 16.6628C77.947 16.6397 77.9386 16.6166 77.9297 16.5936C77.9185 16.565 77.9066 16.5368 77.8938 16.5089C77.8835 16.4861 77.8725 16.4635 77.8613 16.4411C77.848 16.4148 77.8343 16.3885 77.8197 16.3629C77.8064 16.3395 77.7922 16.3167 77.7778 16.2938C77.763 16.2705 77.7486 16.2472 77.7328 16.2247C77.7157 16.2003 77.6976 16.1767 77.6793 16.153C77.664 16.1333 77.6491 16.1134 77.6331 16.0942C77.6286 16.0889 77.6249 16.0834 77.6205 16.078L64.2961 0.621182C64.2847 0.608029 64.2717 0.596477 64.26 0.58368C64.2344 0.555775 64.2086 0.528049 64.1813 0.501744C64.163 0.484148 64.1441 0.467441 64.1251 0.450734C64.0979 0.42674 64.0704 0.403279 64.0417 0.380885C64.0222 0.3656 64.0023 0.350848 63.9822 0.336273C63.9516 0.314412 63.9203 0.293617 63.8885 0.273533C63.8692 0.261447 63.8498 0.249361 63.8301 0.237986C63.7949 0.217902 63.7588 0.19924 63.7222 0.181467C63.704 0.172758 63.6864 0.163516 63.6681 0.15534C63.6278 0.137389 63.5866 0.12157 63.5448 0.106641C63.5286 0.100775 63.513 0.094377 63.4968 0.0890449C63.452 0.0744707 63.4062 0.0623848 63.36 0.0511875C63.3456 0.0476328 63.3313 0.0431895 63.3169 0.040168C63.2684 0.0296816 63.2188 0.0222168 63.1689 0.0159961C63.1561 0.0143965 63.1435 0.0115527 63.1307 0.0101309C63.0681 0.00373242 63.0048 0 62.9407 0H10.8014C6.38826 0 2.79785 3.59326 2.79785 8.01013V19.7957C2.79785 20.7843 3.59908 21.5857 4.58746 21.5857C5.57584 21.5857 6.37707 20.7843 6.37707 19.7957V8.01013C6.37707 5.56717 8.36183 3.57993 10.8014 3.57993H61.1511V15.1168C61.1511 17.2786 62.9117 19.0373 65.0758 19.0373H74.4753V58.9929L70.544 55.0616C70.5342 55.0513 70.5257 55.0402 70.5157 55.0303C70.5056 55.0202 70.4946 55.0116 70.4843 55.0019L62.0456 46.5634C63.7721 43.2662 64.7505 39.5182 64.7505 35.5453C64.7505 22.4109 54.0669 11.7253 40.9348 11.7253C27.8001 11.7253 17.1144 22.4109 17.1144 35.5453C17.1144 41.8145 19.5491 47.5248 23.521 51.7831C23.6027 51.8924 23.6973 51.9925 23.8037 52.0817C28.1385 56.5725 34.2158 59.3704 40.935 59.3704C44.9056 59.3704 48.6514 58.392 51.9466 56.6656L60.3822 65.1045C60.3923 65.1151 60.401 65.1265 60.4115 65.1368C60.4218 65.1471 60.4332 65.1558 60.4437 65.166L74.4755 79.2032V82.99C74.4755 85.433 72.4907 87.4203 70.0511 87.4203H10.8014C8.36183 87.4203 6.37707 85.4328 6.37707 82.99V35.7518C6.37707 34.7632 5.57584 33.9618 4.58746 33.9618C3.59908 33.9618 2.79785 34.7632 2.79785 35.7518V82.9899C2.79785 87.4067 6.38826 91 10.8014 91H70.0511C74.4643 91 78.0547 87.4067 78.0547 82.9899V82.248C79.0354 82.7506 80.0304 82.974 80.9917 82.974C82.8951 82.9739 84.6667 82.1065 85.9335 80.8387C88.4504 78.3203 89.3627 73.8806 86.0961 70.6133ZM64.7305 15.1168V6.60728L72.3592 15.4574H65.076C64.8886 15.4574 64.7305 15.3013 64.7305 15.1168ZM40.9348 15.3051C52.0932 15.3051 61.1712 24.3848 61.1712 35.5451C61.1712 39.2434 60.1739 42.7129 58.4356 45.6998C58.3093 45.8494 58.2108 46.0145 58.1413 46.1887C57.789 46.7564 57.4096 47.3056 57.0047 47.8342C54.877 43.8984 51.4089 40.8951 47.3041 39.3175C49.729 37.3678 51.2852 34.3792 51.2852 31.0322C51.2852 25.1686 46.5178 20.398 40.6579 20.398C34.7954 20.398 30.0257 25.1684 30.0257 31.0322C30.0257 34.3756 31.5793 37.3617 34.0011 39.3116C32.5911 39.853 31.2435 40.5666 29.9859 41.4501C27.7356 43.0313 25.8893 45.0603 24.5422 47.4069C22.1226 44.071 20.6934 39.9721 20.6934 35.5449C20.6934 24.3848 29.7737 15.3051 40.9348 15.3051V15.3051ZM33.6047 31.0324C33.6047 27.1427 36.7688 23.9781 40.6578 23.9781C44.5441 23.9781 47.7058 27.1427 47.7058 31.0324C47.7058 34.9195 44.5443 38.0817 40.6578 38.0817C36.7688 38.0817 33.6047 34.9193 33.6047 31.0324V31.0324ZM27.0748 50.2851C29.5255 45.0832 34.8462 41.6615 40.6578 41.6615C46.6387 41.6615 52.0228 45.2277 54.3979 50.6458C53.5216 51.4285 52.577 52.1362 51.5744 52.7589C51.3981 52.8289 51.231 52.9286 51.0798 53.0567C48.0952 54.7939 44.6292 55.7903 40.9347 55.7903C35.5769 55.7903 30.6993 53.6966 27.0748 50.2851ZM57.6017 52.5457C57.7247 52.451 57.8335 52.3417 57.9264 52.221C58.707 51.4251 59.4326 50.5752 60.0964 49.6768L66.7175 56.2977L61.6782 61.3381L55.0587 54.7159C55.9568 54.0519 56.8063 53.3264 57.6017 52.5457ZM83.402 78.3078C82.2524 79.4583 80.3666 80.0309 78.5225 78.1886L64.2088 63.8694L69.2486 58.8287L74.9664 64.5464C74.9889 64.57 75.0119 64.5931 75.0357 64.6157L83.5652 73.145C85.3985 74.9787 84.4721 77.2371 83.402 78.3078Z" fill="white"/>
</g>
<defs>
<clipPath id="clip0">
<rect width="91" height="91" fill="white"/>
</clipPath>
</defs>
</svg>
