<svg width="91" height="91" viewBox="0 0 91 91" fill="none" xmlns="http://www.w3.org/2000/svg">
<path d="M84.7816 79.0046C85.8548 77.6772 86.4433 76.0236 86.4499 74.3166V71.2833C86.4499 67.0952 83.0547 63.7 78.8666 63.7C74.6785 63.7 71.2833 67.0952 71.2833 71.2833V74.3166C71.2899 76.0236 71.8784 77.6772 72.9516 79.0046C71.0685 79.3548 69.3882 80.4064 68.2499 81.947C67.1117 80.4064 65.4314 79.3548 63.5483 79.0046C64.6215 77.6772 65.21 76.0236 65.2166 74.3166V71.2833C65.2166 67.0952 61.8214 63.7 57.6333 63.7C53.4452 63.7 50.0499 67.0952 50.0499 71.2833V74.3166C50.0566 76.0236 50.645 77.6772 51.7183 79.0046C49.8351 79.3548 48.1549 80.4064 47.0166 81.947C45.8783 80.4064 44.1981 79.3548 42.3149 79.0046C43.3882 77.6772 43.9766 76.0236 43.9833 74.3166V71.2833C43.9833 67.0952 40.588 63.7 36.3999 63.7C32.2118 63.7 28.8166 67.0952 28.8166 71.2833V74.3166C28.8232 76.0236 29.4117 77.6772 30.4849 79.0046C26.8883 79.6627 24.2734 82.7936 24.2666 86.4499V90.9999H27.2999V86.4499C27.2999 83.937 29.337 81.8999 31.8499 81.8999H40.9499C43.4629 81.8999 45.4999 83.937 45.4999 86.4499V90.9999H48.5333V86.4499C48.5333 83.937 50.5703 81.8999 53.0833 81.8999H62.1833C64.6962 81.8999 66.7333 83.937 66.7333 86.4499V90.9999H69.7666V86.4499C69.7666 83.937 71.8037 81.8999 74.3166 81.8999H83.4166C85.9295 81.8999 87.9666 83.937 87.9666 86.4499V90.9999H90.9999V86.4499C90.9931 82.7936 88.3782 79.6627 84.7816 79.0046ZM40.9499 74.3166C40.9499 76.8295 38.9129 78.8666 36.3999 78.8666C33.887 78.8666 31.8499 76.8295 31.8499 74.3166V71.2833C31.8499 68.7704 33.887 66.7333 36.3999 66.7333C38.9129 66.7333 40.9499 68.7704 40.9499 71.2833V74.3166ZM62.1833 74.3166C62.1833 76.8295 60.1462 78.8666 57.6333 78.8666C55.1203 78.8666 53.0833 76.8295 53.0833 74.3166V71.2833C53.0833 68.7704 55.1203 66.7333 57.6333 66.7333C60.1462 66.7333 62.1833 68.7704 62.1833 71.2833V74.3166ZM83.4166 74.3166C83.4166 76.8295 81.3795 78.8666 78.8666 78.8666C76.3537 78.8666 74.3166 76.8295 74.3166 74.3166V71.2833C74.3166 68.7704 76.3537 66.7333 78.8666 66.7333C81.3795 66.7333 83.4166 68.7704 83.4166 71.2833V74.3166Z" fill="white"/>
<path d="M36.9547 30.4391C36.778 30.3693 36.59 30.3335 36.4 30.3333H30.3333C29.6956 30.3331 29.1259 30.732 28.9077 31.3313L27.3 35.7523L27.2469 35.6083C26.0893 32.4464 23.0839 30.3409 19.7167 30.3333H19.6772C20.6809 29.0284 21.2278 27.4296 21.2333 25.7833V22.75C21.2333 18.5619 17.8381 15.1666 13.65 15.1666C9.46192 15.1666 6.06667 18.5619 6.06667 22.75V25.7833C6.07216 27.4296 6.61911 29.0284 7.62277 30.3333H7.58333C3.39733 30.3382 0.00492917 33.7306 0 37.9166V56.1166C0 56.9542 0.679088 57.6333 1.51667 57.6333H6.06667V72.345L3.28813 76.5082C2.82328 77.2049 3.01115 78.1468 3.70806 78.6116C3.95736 78.7779 4.25027 78.8666 4.55 78.8666H22.75C23.5876 78.8668 24.2669 78.1877 24.2669 77.3502C24.2669 77.0504 24.1781 76.7575 24.0119 76.5082L21.2333 72.345V44.3412L21.6155 45.0996C23.1481 48.1627 26.8734 49.4035 29.9365 47.8709C31.294 47.1918 32.3551 46.0384 32.9193 44.6294L35.3823 38.4732L37.809 32.4066C38.1165 31.6274 37.7339 30.7466 36.9547 30.4391ZM9.1 22.75C9.1 20.237 11.1371 18.2 13.65 18.2C16.1629 18.2 18.2 20.237 18.2 22.75V25.7833C18.2 28.2962 16.1629 30.3333 13.65 30.3333C11.1371 30.3333 9.1 28.2962 9.1 25.7833V22.75ZM6.06667 54.6H3.03333V51.5666H6.06667V54.6ZM15.1667 75.8333V57.6333H12.1333V75.8333H7.38465L8.8452 73.6417C9.0109 73.3922 9.09943 73.0995 9.1 72.8V54.6H18.2V72.8C18.2006 73.0995 18.2891 73.3922 18.4548 73.6417L19.9154 75.8333H15.1667ZM30.1028 43.5101C29.4518 45.1343 27.6073 45.9233 25.9832 45.2723C25.2641 44.9841 24.6756 44.4425 24.3289 43.7497L21.0817 37.2387C20.7167 36.4847 19.8096 36.1694 19.0556 36.5346C18.5267 36.7907 18.1934 37.3291 18.2 37.9166V51.5666H9.1V37.9166C9.1 37.079 8.42091 36.4 7.58333 36.4C6.74575 36.4 6.06667 37.079 6.06667 37.9166V48.5333H3.03333V37.9166C3.03333 35.4037 5.07041 33.3666 7.58333 33.3666H12.1333V48.5333H15.1667V33.3666H19.7167C21.8089 33.3708 23.6767 34.6791 24.3956 36.6441L25.8743 40.7103C26.16 41.4977 27.03 41.9043 27.8174 41.6186C28.2398 41.4654 28.5723 41.1327 28.7257 40.7103L29.1898 39.4333H31.7332L30.1028 43.5101ZM32.9466 36.4H30.2924L31.395 33.3666H34.1599L32.9466 36.4Z" fill="white"/>
<path d="M89.4833 9.1C90.3208 9.1 90.9999 8.42091 90.9999 7.58333V1.51667C90.9999 0.679087 90.3208 0 89.4833 0H25.7833C24.9457 0 24.2666 0.679087 24.2666 1.51667V7.58333C24.2666 8.42091 24.9457 9.1 25.7833 9.1H27.2999V27.3H30.3333V9.1H84.9333V42.4667H36.3999V45.5H56.1166V52.2037L46.2583 57.8335L47.7628 60.4665L56.1166 55.6965V60.6667H59.1499V55.6965L67.4916 60.4665L68.9961 57.8335L59.1499 52.2037V45.5H90.9999V42.4667H87.9666V9.1H89.4833ZM27.2999 6.06667V3.03333H87.9666V6.06667H27.2999Z" fill="white"/>
<path d="M74.6852 16.7288L68.6186 15.2122L67.8815 18.1545L70.7222 18.8643L59.2107 26.9223L52.5146 21.5655C51.9843 21.1419 51.2374 21.122 50.6855 21.5169L40.0688 29.1003L41.8312 31.5664L51.5151 24.6504L58.2021 30.0012C58.7284 30.423 59.47 30.4465 60.0221 30.0588L72.8 21.1135V24.2667H75.8334V18.2C75.8334 17.5044 75.36 16.8979 74.6852 16.7288Z" fill="white"/>
</svg>
