<svg width="91" height="91" viewBox="0 0 91 91" fill="none" xmlns="http://www.w3.org/2000/svg">
<g clip-path="url(#clip0)">
<path d="M87.8635 8.28438L82.3953 2.8162C78.8293 -0.749862 72.8204 -0.957279 69.0002 2.35409L59.3899 10.6845C59.2669 10.7911 59.1614 10.9166 59.0775 11.0561L49.7224 26.6392L43.7157 28.6414C43.2081 28.8106 42.8244 29.2305 42.7016 29.7511C42.5787 30.2717 42.7341 30.8188 43.1123 31.1972L59.4825 47.5672C59.7754 47.86 60.1695 48.0192 60.574 48.0192C60.6922 48.0192 60.8111 48.0057 60.9286 47.978C61.4492 47.8552 61.8691 47.4714 62.0384 46.9638L64.0411 40.9552L79.8532 31.4073C79.9924 31.323 80.1175 31.2176 80.2238 31.0943L88.3569 21.6692C91.6498 17.8536 91.4282 11.8492 87.8635 8.28438ZM86.0201 19.6524L78.0474 28.8914L61.9589 38.6062C61.6448 38.7959 61.4086 39.0913 61.2926 39.4396L59.8997 43.6185L56.2108 39.9296C56.2101 39.9289 56.2096 39.928 56.2088 39.9273L50.7519 34.4707C50.7513 34.4702 50.7506 34.4698 50.7501 34.4693L47.0609 30.78L51.2397 29.3871C51.5892 29.2705 51.8855 29.0331 52.0749 28.7174L61.5976 12.8559L71.0221 4.6865C73.6442 2.41328 77.767 2.55333 80.2124 4.99913L85.6808 10.4673C88.1274 12.9136 88.2796 17.0342 86.0201 19.6524Z" fill="white"/>
<path d="M83.4882 62.0155C78.9567 57.4841 72.2872 55.909 66.2444 57.868L33.4432 25.0668C35.402 19.024 33.8269 12.3544 29.2958 7.82284C24.5218 3.04925 17.3749 1.55592 11.0878 4.02003C10.6031 4.21003 10.2465 4.63162 10.1401 5.14136C10.0336 5.65092 10.1913 6.18004 10.5595 6.5483L20.3778 16.3663L13.8295 22.9144L4.01144 13.0962C3.643 12.7281 3.11459 12.5708 2.6045 12.6768C2.09475 12.7832 1.67299 13.1396 1.48317 13.6244C-0.980584 19.9113 0.512207 27.0583 5.28597 31.8324C9.81749 36.3638 16.487 37.9392 22.5298 35.9799L34.7949 48.245L19.5209 63.5193L9.80629 68.9508C9.53614 69.1019 9.31752 69.3308 9.17907 69.6077L4.81373 78.3384C4.51656 78.9326 4.63298 79.6503 5.10273 80.1202L10.5594 85.577C10.8556 85.8733 11.2507 86.029 11.6512 86.029C11.8856 86.029 12.1218 85.9756 12.3411 85.866L21.0718 81.5006C21.3487 81.3622 21.5776 81.1436 21.7287 80.8734L27.1603 71.1586L42.4346 55.8849L55.3312 68.7814C53.3722 74.8242 54.9474 81.4939 59.4788 86.0254C62.7248 89.2712 67.0673 91.0002 71.4911 91.0002C73.5735 91 75.6743 90.6168 77.6866 89.8284C78.1713 89.6384 78.5278 89.2168 78.6343 88.7071C78.7407 88.1975 78.5831 87.6684 78.2148 87.3001L68.3966 77.4819L74.9447 70.934L84.7627 80.752C85.131 81.1203 85.6598 81.2783 86.1697 81.1715C86.6794 81.065 87.1012 80.7087 87.291 80.2238C89.7549 73.9366 88.2622 66.7896 83.4882 62.0155ZM24.8259 69.1271C24.7255 69.2276 24.6396 69.3413 24.5703 69.4654L19.2662 78.9521L11.9556 82.6074L8.07214 78.7239L11.7272 71.4132L21.2138 66.1092C21.3379 66.0399 21.4516 65.954 21.552 65.8536L36.9774 50.4281L40.2515 53.7021L24.8259 69.1271ZM85.1099 76.7333L76.0362 67.6596C75.4333 67.0571 74.4563 67.0571 73.8534 67.6596L65.1227 76.3903C64.8334 76.6798 64.6708 77.0722 64.6708 77.4817C64.6708 77.8912 64.8334 78.2835 65.1227 78.5732L74.1966 87.6471C69.6974 88.5411 64.9791 87.1602 61.6615 83.8427C57.7555 79.9366 56.5339 74.0882 58.5499 68.9437C58.7737 68.3725 58.6381 67.723 58.2044 67.2892L24.022 33.107C23.727 32.8121 23.3322 32.655 22.9302 32.655C22.7411 32.655 22.5502 32.6898 22.3675 32.7615C17.2231 34.7777 11.3748 33.5557 7.46855 29.65C4.15078 26.3321 2.76979 21.6136 3.66433 17.1148L12.738 26.1887C13.3409 26.7914 14.3179 26.791 14.9208 26.1887L23.6514 17.458C24.2541 16.8551 24.2541 15.8781 23.6514 15.2752L14.5777 6.20137C19.0769 5.30559 23.7949 6.68765 27.1128 10.0058C31.0189 13.9118 32.2405 19.7602 30.2244 24.9047C30.0007 25.4759 30.1363 26.1254 30.5699 26.5592L64.752 60.7411C65.186 61.1748 65.8358 61.3104 66.4065 61.0866C71.5512 59.0711 77.3992 60.2921 81.3055 64.198C84.6236 67.516 86.0042 72.2346 85.1099 76.7333Z" fill="white"/>
</g>
<defs>
<clipPath id="clip0">
<rect width="91" height="91" fill="white"/>
</clipPath>
</defs>
</svg>
