<svg width="18" height="18" viewBox="0 0 18 18" fill="none" xmlns="http://www.w3.org/2000/svg">
<path d="M13.4992 0.0037452L11.165 0C8.54268 0 6.848 1.73871 6.848 4.42982V6.47227H4.50109C4.29829 6.47227 4.13406 6.63668 4.13406 6.83949V9.79876C4.13406 10.0016 4.29848 10.1658 4.50109 10.1658H6.848V17.633C6.848 17.8358 7.01222 18 7.21502 18H10.2771C10.4799 18 10.6441 17.8356 10.6441 17.633V10.1658H13.3882C13.591 10.1658 13.7552 10.0016 13.7552 9.79876L13.7563 6.83949C13.7563 6.74211 13.7176 6.64886 13.6488 6.57994C13.5801 6.51103 13.4865 6.47227 13.3891 6.47227H10.6441V4.74086C10.6441 3.90868 10.8424 3.48622 11.9264 3.48622L13.4988 3.48566C13.7015 3.48566 13.8657 3.32124 13.8657 3.11863V0.370775C13.8657 0.168347 13.7016 0.00411972 13.4992 0.0037452Z" fill="white"/>
</svg>
