<svg width="10" height="18" viewBox="0 0 10 18" fill="none" xmlns="http://www.w3.org/2000/svg">
<path d="M9.49922 0.0037452L7.16505 0C4.54268 0 2.848 1.73871 2.848 4.42982V6.47227H0.50109C0.298289 6.47227 0.134064 6.63668 0.134064 6.83949V9.79876C0.134064 10.0016 0.298477 10.1658 0.50109 10.1658H2.848V17.633C2.848 17.8358 3.01222 18 3.21502 18H6.27707C6.47987 18 6.6441 17.8356 6.6441 17.633V10.1658H9.38818C9.59098 10.1658 9.7552 10.0016 9.7552 9.79876L9.75633 6.83949C9.75633 6.74211 9.71756 6.64886 9.64884 6.57994C9.58012 6.51103 9.48649 6.47227 9.38911 6.47227H6.6441V4.74086C6.6441 3.90868 6.8424 3.48622 7.92644 3.48622L9.49885 3.48566C9.70146 3.48566 9.86569 3.32124 9.86569 3.11863V0.370775C9.86569 0.168347 9.70165 0.00411972 9.49922 0.0037452Z" fill="#262626"/>
</svg>
