<svg width="18" height="18" viewBox="0 0 18 18" fill="none" xmlns="http://www.w3.org/2000/svg">
<g clip-path="url(#clip0)">
<path d="M17.3215 0.679798C16.8683 0.226531 16.3253 0 15.6926 0H2.3097C1.67686 0 1.13399 0.226613 0.680723 0.679798C0.227538 1.13286 0.00100708 1.67581 0.00100708 2.30853V15.6913C0.00100708 16.324 0.227497 16.8671 0.680723 17.3202C1.13399 17.7733 1.67698 18 2.3097 18H15.6925C16.325 18 16.8682 17.7733 17.3213 17.3202C17.7746 16.8671 18.0009 16.324 18.0009 15.6913V2.30853C18.0009 1.67569 17.7746 1.13302 17.3215 0.679798ZM6.4641 6.48624C7.17107 5.80275 8.02071 5.46084 9.01291 5.46084C10.0128 5.46084 10.8662 5.80275 11.5734 6.48624C12.2805 7.16986 12.6339 7.9961 12.6339 8.96482C12.6339 9.93342 12.2805 10.7597 11.5734 11.4431C10.8662 12.1269 10.0131 12.4688 9.01291 12.4688C8.02075 12.4688 7.17119 12.1266 6.4641 11.4431C5.75696 10.7596 5.40344 9.93342 5.40344 8.96482C5.40344 7.9961 5.75696 7.1699 6.4641 6.48624ZM15.9622 15.2111C15.9622 15.414 15.8917 15.5839 15.7512 15.7207C15.6103 15.8574 15.4425 15.9258 15.247 15.9258H2.71991C2.51682 15.9258 2.34677 15.8574 2.21017 15.7207C2.07336 15.5842 2.00502 15.414 2.00502 15.2111V7.61705H3.65731C3.50113 8.10931 3.42302 8.62111 3.42302 9.15224C3.42302 10.6526 3.96983 11.9316 5.06358 12.9905C6.15744 14.0489 7.47382 14.5783 9.01287 14.5783C10.0285 14.5783 10.9659 14.336 11.8256 13.8517C12.685 13.3671 13.3642 12.709 13.8646 11.8769C14.3646 11.0448 14.6147 10.1366 14.6147 9.15228C14.6147 8.62115 14.5363 8.10947 14.3801 7.61709H15.9623V15.2111H15.9622V15.2111ZM15.9622 4.74595C15.9622 4.97252 15.8841 5.16395 15.7276 5.32017C15.5714 5.47652 15.3801 5.55459 15.1534 5.55459H13.1144C12.8879 5.55459 12.6963 5.47648 12.5402 5.32017C12.3839 5.16395 12.3059 4.97252 12.3059 4.74595V2.81253C12.3059 2.59376 12.3839 2.40433 12.5402 2.24413C12.6964 2.08401 12.888 2.00385 13.1144 2.00385H15.1534C15.3801 2.00385 15.5714 2.08397 15.7276 2.24413C15.884 2.40433 15.9622 2.59376 15.9622 2.81253V4.74595Z" fill="#262626"/>
</g>
<defs>
<clipPath id="clip0">
<rect width="18" height="18" fill="white"/>
</clipPath>
</defs>
</svg>
