<svg width="120" height="120" viewBox="0 0 120 120" fill="none" xmlns="http://www.w3.org/2000/svg">
<path d="M114.375 112.5H76.0875C71.1522 112.505 66.3023 111.212 62.025 108.75L28.125 89.1561C26.4058 88.1603 25.1519 86.523 24.6386 84.6036C24.1254 82.6843 24.3947 80.6397 25.3875 78.9186L36.6375 59.4374L55.95 70.5936C54.5139 72.2055 52.5654 73.2723 50.4338 73.614C48.3021 73.9556 46.1179 73.551 44.25 72.4686L37.275 68.4374C36.8424 68.1888 36.3287 68.1222 35.8469 68.2523C35.3652 68.3824 34.9549 68.6985 34.7062 69.1311C34.4576 69.5638 34.391 70.0775 34.5211 70.5592C34.6512 71.0409 34.9674 71.4513 35.4 71.6999L42.375 75.7124C44.3598 76.8734 46.6193 77.482 48.9187 77.4749C50.071 77.4743 51.2182 77.323 52.3312 77.0249C53.9995 76.5877 55.5636 75.8218 56.932 74.7722C58.3003 73.7226 59.4454 72.4103 60.3 70.9124C60.424 70.6984 60.5044 70.462 60.5366 70.2168C60.5688 69.9716 60.5522 69.7224 60.4877 69.4836C60.4232 69.2449 60.3122 69.0212 60.1609 68.8256C60.0096 68.6299 59.8211 68.4661 59.6062 68.3436L59.3625 68.2124L70.125 68.0249C70.1991 68.1532 70.238 68.2987 70.238 68.4468C70.238 68.5949 70.1991 68.7404 70.125 68.8686L67.1812 73.9686C66.882 74.4854 66.6881 75.0564 66.6109 75.6486C66.5337 76.2408 66.5746 76.8424 66.7312 77.4186C67.0429 78.5874 67.8047 79.5851 68.85 80.1936C69.064 80.3176 69.3004 80.398 69.5456 80.4302C69.7908 80.4625 70.04 80.4459 70.2787 80.3814C70.5175 80.3169 70.7412 80.2058 70.9368 80.0545C71.1325 79.9032 71.2962 79.7147 71.4187 79.4999C71.6632 79.0694 71.7274 78.5596 71.5975 78.0819C71.4675 77.6042 71.1539 77.1972 70.725 76.9499C70.5406 76.8345 70.4067 76.6536 70.35 76.4436C70.2728 76.2511 70.2728 76.0362 70.35 75.8436L73.2937 70.7436C73.593 70.2254 73.7873 69.6532 73.8654 69.0598C73.9435 68.4665 73.9039 67.8635 73.749 67.2854C73.594 66.7074 73.3267 66.1655 72.9622 65.6907C72.5978 65.216 72.1434 64.8177 71.625 64.5186C71.3262 64.3532 70.9915 64.263 70.65 64.2561L56.025 64.5186C54.5641 64.5509 53.1175 64.2261 51.8105 63.5727C50.5035 62.9192 49.3757 61.9567 48.525 60.7686C47.6774 59.5684 47.1339 58.1804 46.9412 56.7237C46.7485 55.2671 46.9124 53.7855 47.4187 52.4061C47.5771 51.9911 47.5829 51.5334 47.4353 51.1145C47.2876 50.6956 46.9961 50.3426 46.6125 50.1186L41.4937 47.1561C41.2797 47.0322 41.0433 46.9518 40.7981 46.9195C40.5529 46.8873 40.3037 46.9039 40.065 46.9684C39.8262 47.0329 39.6026 47.144 39.4069 47.2953C39.2113 47.4465 39.0475 47.635 38.925 47.8499L34.2375 55.9686L22.125 77.0436C20.6374 79.6274 20.2363 82.696 21.0097 85.5754C21.7832 88.4547 23.6679 90.9093 26.25 92.3999L60.15 111.975C64.9952 114.774 70.4919 116.249 76.0875 116.25H114.375C114.872 116.25 115.349 116.052 115.701 115.701C116.052 115.349 116.25 114.872 116.25 114.375C116.25 113.878 116.052 113.401 115.701 113.049C115.349 112.697 114.872 112.5 114.375 112.5ZM41.25 51.3186L43.4437 52.5749C42.9263 54.7617 43.004 57.0471 43.6687 59.1936L38.5125 56.2499L41.25 51.3186Z" fill="#262626"/>
<path d="M93.75 82.5937V80.625C93.75 80.1277 93.5525 79.6508 93.2008 79.2992C92.8492 78.9475 92.3723 78.75 91.875 78.75C91.3777 78.75 90.9008 78.9475 90.5492 79.2992C90.1976 79.6508 90 80.1277 90 80.625V82.5H86.25V80.625C86.25 80.1277 86.0525 79.6508 85.7008 79.2992C85.3492 78.9475 84.8723 78.75 84.375 78.75C83.8777 78.75 83.4008 78.9475 83.0492 79.2992C82.6976 79.6508 82.5 80.1277 82.5 80.625V82.5H79.8375C79.3402 82.5 78.8633 82.6975 78.5117 83.0492C78.1601 83.4008 77.9625 83.8777 77.9625 84.375C77.9625 84.8723 78.1601 85.3492 78.5117 85.7008C78.8633 86.0525 79.3402 86.25 79.8375 86.25H82.5V88.125C82.5 88.6223 82.6976 89.0992 83.0492 89.4508C83.4008 89.8025 83.8777 90 84.375 90C84.8723 90 85.3492 89.8025 85.7008 89.4508C86.0525 89.0992 86.25 88.6223 86.25 88.125V86.25H90V88.125C90 88.6223 90.1976 89.0992 90.5492 89.4508C90.9008 89.8025 91.3777 90 91.875 90C92.3723 90 92.8492 89.8025 93.2008 89.4508C93.5525 89.0992 93.75 88.6223 93.75 88.125V86.25C96.8581 86.5456 99.8586 87.543 102.525 89.167C105.192 90.791 107.455 92.9991 109.144 95.625H93.75C93.2527 95.625 92.7758 95.8225 92.4242 96.1742C92.0726 96.5258 91.875 97.0027 91.875 97.5C91.875 97.9973 92.0726 98.4742 92.4242 98.8258C92.7758 99.1775 93.2527 99.375 93.75 99.375H110.625C110.762 99.3856 110.9 99.3856 111.038 99.375C111.79 101.171 112.283 103.065 112.5 105H80.3438C76.3938 104.999 72.5138 103.958 69.0938 101.981L30.9 79.9313C30.6858 79.8081 30.4494 79.7284 30.2044 79.6967C29.9594 79.6649 29.7105 79.6817 29.472 79.7461C29.2334 79.8105 29.0099 79.9213 28.8142 80.0721C28.6185 80.2229 28.4544 80.4108 28.3313 80.625C28.2081 80.8392 28.1284 81.0756 28.0967 81.3206C28.0649 81.5656 28.0817 81.8145 28.1461 82.0531C28.2106 82.2916 28.3213 82.5151 28.4721 82.7108C28.6229 82.9065 28.8108 83.0706 29.025 83.1937L67.2188 105.225C71.2085 107.532 75.7352 108.748 80.3438 108.75H114.375C114.872 108.75 115.349 108.552 115.701 108.201C116.052 107.849 116.25 107.372 116.25 106.875C116.245 100.739 113.925 94.8301 109.754 90.3291C105.583 85.8281 99.8682 83.0658 93.75 82.5937Z" fill="#262626"/>
<path d="M13.125 56.25H28.125C28.6223 56.25 29.0992 56.0525 29.4508 55.7008C29.8025 55.3492 30 54.8723 30 54.375C30 53.8777 29.8025 53.4008 29.4508 53.0492C29.0992 52.6975 28.6223 52.5 28.125 52.5H13.125C12.6277 52.5 12.1508 52.6975 11.7992 53.0492C11.4475 53.4008 11.25 53.8777 11.25 54.375C11.25 54.8723 11.4475 55.3492 11.7992 55.7008C12.1508 56.0525 12.6277 56.25 13.125 56.25Z" fill="#262626"/>
<path d="M41.25 106.875H5.625C5.12772 106.875 4.65081 107.073 4.29917 107.424C3.94754 107.776 3.75 108.253 3.75 108.75C3.75 109.247 3.94754 109.724 4.29917 110.076C4.65081 110.427 5.12772 110.625 5.625 110.625H41.25C41.7473 110.625 42.2242 110.427 42.5758 110.076C42.9275 109.724 43.125 109.247 43.125 108.75C43.125 108.253 42.9275 107.776 42.5758 107.424C42.2242 107.073 41.7473 106.875 41.25 106.875Z" fill="#262626"/>
<path d="M5.625 71.25H18.75C19.2473 71.25 19.7242 71.0525 20.0758 70.7008C20.4275 70.3492 20.625 69.8723 20.625 69.375C20.625 68.8777 20.4275 68.4008 20.0758 68.0492C19.7242 67.6975 19.2473 67.5 18.75 67.5H5.625C5.12772 67.5 4.65081 67.6975 4.29917 68.0492C3.94754 68.4008 3.75 68.8777 3.75 69.375C3.75 69.8723 3.94754 70.3492 4.29917 70.7008C4.65081 71.0525 5.12772 71.25 5.625 71.25Z" fill="#262626"/>
<path d="M5.625 88.125H13.125C13.6223 88.125 14.0992 87.9275 14.4508 87.5758C14.8025 87.2242 15 86.7473 15 86.25C15 85.7527 14.8025 85.2758 14.4508 84.9242C14.0992 84.5725 13.6223 84.375 13.125 84.375H5.625C5.12772 84.375 4.65081 84.5725 4.29917 84.9242C3.94754 85.2758 3.75 85.7527 3.75 86.25C3.75 86.7473 3.94754 87.2242 4.29917 87.5758C4.65081 87.9275 5.12772 88.125 5.625 88.125Z" fill="#262626"/>
<path d="M11.25 99.375C11.25 99.8723 11.4475 100.349 11.7992 100.701C12.1508 101.052 12.6277 101.25 13.125 101.25H28.125C28.6223 101.25 29.0992 101.052 29.4508 100.701C29.8025 100.349 30 99.8723 30 99.375C30 98.8777 29.8025 98.4008 29.4508 98.0492C29.0992 97.6975 28.6223 97.5 28.125 97.5H13.125C12.6277 97.5 12.1508 97.6975 11.7992 98.0492C11.4475 98.4008 11.25 98.8777 11.25 99.375Z" fill="#262626"/>
<path d="M75.5438 77.4186L69.9188 83.0436C69.743 83.2179 69.6035 83.4253 69.5083 83.6538C69.4131 83.8823 69.3641 84.1273 69.3641 84.3749C69.3641 84.6224 69.4131 84.8675 69.5083 85.0959C69.6035 85.3244 69.743 85.5318 69.9188 85.7061C70.0931 85.8819 70.3004 86.0213 70.5289 86.1165C70.7574 86.2117 71.0025 86.2607 71.25 86.2607C71.4975 86.2607 71.7426 86.2117 71.9711 86.1165C72.1996 86.0213 72.407 85.8819 72.5813 85.7061L78.2063 80.0811C78.5593 79.728 78.7577 79.2492 78.7577 78.7499C78.7577 78.2505 78.5593 77.7717 78.2063 77.4186C77.8532 77.0655 77.3743 76.8672 76.875 76.8672C76.3757 76.8672 75.8968 77.0655 75.5438 77.4186Z" fill="#262626"/>
<path d="M84.375 50.625C83.8777 50.625 83.4008 50.8225 83.0492 51.1742C82.6975 51.5258 82.5 52.0027 82.5 52.5V65.625C82.5 66.1223 82.6975 66.5992 83.0492 66.9508C83.4008 67.3025 83.8777 67.5 84.375 67.5H93.75C94.2473 67.5 94.7242 67.3025 95.0758 66.9508C95.4275 66.5992 95.625 66.1223 95.625 65.625C95.625 65.1277 95.4275 64.6508 95.0758 64.2992C94.7242 63.9475 94.2473 63.75 93.75 63.75H86.25V52.5C86.25 52.0027 86.0525 51.5258 85.7008 51.1742C85.3492 50.8225 84.8723 50.625 84.375 50.625Z" fill="#262626"/>
<path d="M58.2187 47.4188C57.7312 48.1313 57.2812 48.8438 56.85 49.5938V49.6875C56.85 49.6875 56.85 49.6875 56.85 49.8C55.3135 52.4765 54.1765 55.3633 53.475 58.3687C53.3631 58.8536 53.4484 59.363 53.7121 59.785C53.9759 60.207 54.3964 60.5069 54.8813 60.6188C55.3661 60.7306 55.8755 60.6453 56.2975 60.3816C56.7195 60.1179 57.0194 59.6973 57.1312 59.2125C57.6145 57.1441 58.3316 55.1374 59.2688 53.2312L64.0687 56.0063C64.3545 56.1682 64.6778 56.2523 65.0062 56.25C65.4214 56.2529 65.8258 56.1179 66.156 55.8663C66.4862 55.6146 66.7235 55.2604 66.8307 54.8594C66.938 54.4583 66.9091 54.033 66.7485 53.6501C66.588 53.2672 66.305 52.9484 65.9437 52.7437L61.125 49.9688C61.4437 49.5187 61.7438 49.05 62.0813 48.6188L62.2312 48.3937C63.613 46.6026 65.2057 44.9846 66.975 43.575C67.1234 43.5059 67.262 43.4176 67.3875 43.3125C67.8375 42.975 68.2875 42.6375 68.7375 42.3375L71.5313 47.175C71.6553 47.3883 71.8202 47.575 72.0166 47.7244C72.213 47.8738 72.4369 47.983 72.6755 48.0457C72.9141 48.1084 73.1628 48.1234 73.4073 48.0898C73.6517 48.0563 73.8871 47.9747 74.1 47.85C74.5289 47.6027 74.8425 47.1957 74.9725 46.718C75.1024 46.2403 75.0382 45.7305 74.7938 45.3L72 40.4813C75.2687 38.8036 78.8374 37.7903 82.5 37.5V43.125C82.5 43.6223 82.6975 44.0992 83.0492 44.4508C83.4008 44.8025 83.8777 45 84.375 45C84.8723 45 85.3492 44.8025 85.7008 44.4508C86.0525 44.0992 86.25 43.6223 86.25 43.125V37.5937C89.9067 37.8328 93.4807 38.7884 96.7688 40.4062L93.9938 45.2063C93.7493 45.6368 93.6851 46.1465 93.815 46.6242C93.945 47.102 94.2586 47.5089 94.6875 47.7562C94.9004 47.881 95.1358 47.9625 95.3802 47.9961C95.6247 48.0297 95.8734 48.0147 96.112 47.952C96.3506 47.8893 96.5746 47.7801 96.7709 47.6307C96.9673 47.4812 97.1322 47.2945 97.2563 47.0813L100.031 42.2625C103.073 44.3105 105.689 46.9273 107.738 49.9688L102.919 52.7437C102.558 52.9484 102.274 53.2672 102.114 53.6501C101.953 54.033 101.925 54.4583 102.032 54.8594C102.139 55.2604 102.376 55.6146 102.707 55.8663C103.037 56.1179 103.441 56.2529 103.856 56.25C104.185 56.2523 104.508 56.1682 104.794 56.0063L109.594 53.2312C111.244 56.5125 112.232 60.0869 112.5 63.75H106.875C106.378 63.75 105.901 63.9475 105.549 64.2992C105.198 64.6508 105 65.1277 105 65.625C105 66.1223 105.198 66.5992 105.549 66.9508C105.901 67.3025 106.378 67.5 106.875 67.5H112.5C112.253 71.1539 111.284 74.7225 109.65 78L104.869 75.2438C104.436 74.9951 103.922 74.9285 103.441 75.0586C102.959 75.1887 102.549 75.5049 102.3 75.9375C102.051 76.3701 101.985 76.8838 102.115 77.3656C102.245 77.8473 102.561 78.2576 102.994 78.5062L107.756 81.2438V81.3562C107.475 81.7665 107.369 82.2716 107.46 82.7603C107.552 83.2491 107.834 83.6815 108.244 83.9625C108.554 84.1711 108.92 84.2821 109.294 84.2812C109.601 84.2817 109.903 84.2067 110.175 84.0629C110.446 83.919 110.678 83.7107 110.85 83.4562C111.188 82.9688 111.488 82.4813 111.788 81.975C111.908 81.8495 112.015 81.7112 112.106 81.5625C112.146 81.4718 112.177 81.3776 112.2 81.2812C114.893 76.5052 116.289 71.1077 116.25 65.625C116.24 60.0853 114.786 54.644 112.031 49.8375C112.036 49.7876 112.036 49.7374 112.031 49.6875L111.9 49.5375C111.488 48.825 111.038 48.1125 110.569 47.4375L114.863 43.125C115.038 42.9507 115.178 42.7433 115.273 42.5148C115.368 42.2863 115.417 42.0413 115.417 41.7938C115.417 41.5462 115.368 41.3012 115.273 41.0727C115.178 40.8442 115.038 40.6368 114.863 40.4625L109.575 35.175C109.401 34.9993 109.193 34.8598 108.965 34.7646C108.736 34.6694 108.491 34.6204 108.244 34.6204C107.996 34.6204 107.751 34.6694 107.523 34.7646C107.294 34.8598 107.087 34.9993 106.913 35.175L102.563 39.4875C101.888 39.0187 101.175 38.5688 100.463 38.1562L100.313 38.025H100.163C97.0149 36.202 93.5773 34.9335 90 34.275V30H93.75C94.2473 30 94.7242 29.8025 95.0758 29.4508C95.4275 29.0992 95.625 28.6223 95.625 28.125V20.625C95.625 20.1277 95.4275 19.6508 95.0758 19.2992C94.7242 18.9475 94.2473 18.75 93.75 18.75H75C74.5027 18.75 74.0258 18.9475 73.6742 19.2992C73.3225 19.6508 73.125 20.1277 73.125 20.625C73.125 21.1223 73.3225 21.5992 73.6742 21.9508C74.0258 22.3025 74.5027 22.5 75 22.5H91.875V26.25H75C74.5027 26.25 74.0258 26.4475 73.6742 26.7992C73.3225 27.1508 73.125 27.6277 73.125 28.125C73.125 28.6223 73.3225 29.0992 73.6742 29.4508C74.0258 29.8025 74.5027 30 75 30H78.75V34.2563C74.2341 35.0279 69.9406 36.7747 66.1688 39.375L61.875 35.1375C61.7007 34.9618 61.4933 34.8223 61.2648 34.7271C61.0363 34.6319 60.7913 34.5829 60.5438 34.5829C60.2962 34.5829 60.0512 34.6319 59.8227 34.7271C59.5942 34.8223 59.3868 34.9618 59.2125 35.1375L53.925 40.425C53.7493 40.5993 53.6098 40.8067 53.5146 41.0352C53.4194 41.2637 53.3704 41.5087 53.3704 41.7563C53.3704 42.0038 53.4194 42.2488 53.5146 42.4773C53.6098 42.7058 53.7493 42.9132 53.925 43.0875L58.2187 47.4188ZM108.244 39.1125L110.888 41.7563L108.169 44.4937C107.329 43.5599 106.44 42.6712 105.506 41.8312L108.244 39.1125ZM82.5 30H86.25V33.8437C85.6313 33.8437 85.0125 33.75 84.375 33.75C83.7375 33.75 83.1188 33.75 82.5 33.75V30ZM60.5063 39.1125L63.2063 41.7938C62.2636 42.6177 61.3743 43.5007 60.5438 44.4375L57.8625 41.7563L60.5063 39.1125Z" fill="#262626"/>
</svg>
