<svg width="18" height="18" viewBox="0 0 18 18" fill="none" xmlns="http://www.w3.org/2000/svg">
<path d="M17.3214 0.679798C16.8683 0.226531 16.3252 0 15.6926 0H2.30967C1.67683 0 1.13396 0.226613 0.680693 0.679798C0.227508 1.13286 0.000976562 1.67581 0.000976562 2.30853V15.6913C0.000976562 16.324 0.227467 16.8671 0.680693 17.3202C1.13396 17.7733 1.67695 18 2.30967 18H15.6924C16.325 18 16.8682 17.7733 17.3213 17.3202C17.7746 16.8671 18.0009 16.324 18.0009 15.6913V2.30853C18.0009 1.67569 17.7746 1.13302 17.3214 0.679798ZM6.46407 6.48624C7.17104 5.80275 8.02068 5.46084 9.01288 5.46084C10.0128 5.46084 10.8662 5.80275 11.5733 6.48624C12.2805 7.16986 12.6338 7.9961 12.6338 8.96482C12.6338 9.93342 12.2805 10.7597 11.5733 11.4431C10.8662 12.1269 10.013 12.4688 9.01288 12.4688C8.02072 12.4688 7.17116 12.1266 6.46407 11.4431C5.75693 10.7596 5.40341 9.93342 5.40341 8.96482C5.40341 7.9961 5.75693 7.1699 6.46407 6.48624ZM15.9622 15.2111C15.9622 15.414 15.8916 15.5839 15.7511 15.7207C15.6102 15.8574 15.4425 15.9258 15.247 15.9258H2.71988C2.51679 15.9258 2.34674 15.8574 2.21014 15.7207C2.07333 15.5842 2.00499 15.414 2.00499 15.2111V7.61705H3.65728C3.5011 8.10931 3.42299 8.62111 3.42299 9.15224C3.42299 10.6526 3.9698 11.9316 5.06355 12.9905C6.15741 14.0489 7.47379 14.5783 9.01284 14.5783C10.0285 14.5783 10.9659 14.336 11.8256 13.8517C12.6849 13.3671 13.3642 12.709 13.8646 11.8769C14.3646 11.0448 14.6146 10.1366 14.6146 9.15228C14.6146 8.62115 14.5362 8.10947 14.38 7.61709H15.9622V15.2111H15.9622V15.2111ZM15.9622 4.74595C15.9622 4.97252 15.884 5.16395 15.7275 5.32017C15.5714 5.47652 15.38 5.55459 15.1533 5.55459H13.1144C12.8879 5.55459 12.6963 5.47648 12.5401 5.32017C12.3839 5.16395 12.3058 4.97252 12.3058 4.74595V2.81253C12.3058 2.59376 12.3839 2.40433 12.5401 2.24413C12.6964 2.08401 12.888 2.00385 13.1144 2.00385H15.1533C15.38 2.00385 15.5714 2.08397 15.7275 2.24413C15.884 2.40433 15.9622 2.59376 15.9622 2.81253V4.74595Z" fill="white"/>
</svg>
